<svg aria-hidden="true" style="width:0;height:0;position:absolute;overflow:hidden" xmlns="http://www.w3.org/2000/svg"><defs><symbol id="icon-youtube" viewBox="0 0 32 32"><path d="M28.502 5.972c1.377.352 2.461 1.388 2.829 2.703.669 2.384.669 7.358.669 7.358s0 4.974-.669 7.358c-.368 1.315-1.452 2.308-2.829 2.66C26.007 26.69 16 26.69 16 26.69s-10.007 0-12.502-.639c-1.377-.352-2.461-1.344-2.829-2.66C0 21.007 0 16.033 0 16.033s0-4.974.669-7.358c.368-1.315 1.452-2.351 2.829-2.703C5.994 5.333 16 5.333 16 5.333s10.007 0 12.502.639zm-15.774 5.545v9.032l8.364-4.516-8.364-4.516z"/></symbol><symbol id="icon-instagram" viewBox="0 0 32 32"><path d="M32 2a2 2 0 1 1-3.999.001A2 2 0 0 1 32 2zM16 30C8.268 30 2 23.732 2 16S8.268 2 16 2s14 6.268 14 14-6.268 14-14 14zm.001-4.667a9.333 9.333 0 1 0 0-18.666 9.333 9.333 0 1 0 0 18.666z"/></symbol><symbol id="icon-modal-close" viewBox="0 0 32 32"><path stroke-linejoin="round" stroke-linecap="round" stroke-width="1.412" d="M21.294 10.706 10.706 21.294m0-10.588 10.588 10.588M16 30.706c8.122 0 14.706-6.584 14.706-14.706S24.122 1.294 16 1.294 1.294 7.878 1.294 16 7.878 30.706 16 30.706z"/></symbol><symbol id="icon-menu" viewBox="0 0 48 32"><path d="M45.467 13.333H2.534c-1.399 0-2.533.681-2.533 1.52v.16c0 .839 1.134 1.52 2.533 1.52h42.933c1.399 0 2.533-.681 2.533-1.52v-.16c0-.839-1.134-1.52-2.533-1.52zm0 13.334H2.534c-1.399 0-2.533.681-2.533 1.52v.16c0 .839 1.134 1.52 2.533 1.52h42.933c1.399 0 2.533-.681 2.533-1.52v-.16c0-.839-1.134-1.52-2.533-1.52zm0-26.667H2.534C1.135 0 .001.681.001 1.52v.16c0 .839 1.134 1.52 2.533 1.52h42.933C46.866 3.2 48 2.519 48 1.68v-.16C48 .681 46.866 0 45.467 0z"/></symbol><symbol id="icon-cross" viewBox="0 0 32 32"><path stroke-linecap="round" stroke-width="3.556" d="M29.63 30.222 2.371 1.778m27.259 0L2.371 30.222"/></symbol><symbol id="icon-facebook" viewBox="0 0 32 32"><path d="M23.999 10.362h-5.903V7.041c0-1.247.964-1.538 1.642-1.538h4.166V.02L18.167.001c-6.369 0-7.818 4.09-7.818 6.707v3.655H6.666v5.65h3.683v15.988h7.747V16.013h5.227l.676-5.65z"/></symbol></defs></svg>